<?xml version="1.0" encoding="utf-8"?>
<!-- Generator: Adobe Illustrator 16.0.4, SVG Export Plug-In . SVG Version: 6.00 Build 0)  -->
<!DOCTYPE svg PUBLIC "-//W3C//DTD SVG 1.1//EN" "http://www.w3.org/Graphics/SVG/1.1/DTD/svg11.dtd">
<svg version="1.1" id="Layer_1" xmlns="http://www.w3.org/2000/svg" xmlns:xlink="http://www.w3.org/1999/xlink" x="0px" y="0px"
	 width="605.69px" height="85.496px" viewBox="0 0 605.69 85.496" enable-background="new 0 0 605.69 85.496" xml:space="preserve">
<g>
	<path fill="#FFFFFF" d="M37.359,24.71v38.07c0,1.62-0.286,3.21-0.855,4.77c-0.571,1.561-1.426,2.956-2.565,4.185
		c-1.14,1.23-2.565,2.221-4.275,2.97c-1.71,0.751-3.706,1.125-5.985,1.125c-0.061,0-0.315,0-0.765,0
		c-0.45,0-1.005,0.014-1.665,0.045c-0.661,0.03-1.395,0.045-2.205,0.045c-0.81,0-1.635,0-2.475,0h-6.66v-2.34
		c0.419,0.121,0.81,0.121,1.17,0c0.3-0.12,0.569-0.36,0.81-0.72c0.239-0.36,0.36-0.959,0.36-1.8V16.52
		c0-0.839-0.121-1.454-0.36-1.845c-0.241-0.39-0.51-0.644-0.81-0.765c-0.36-0.12-0.751-0.12-1.17,0v-2.25h13.77
		c2.279,0,4.275,0.375,5.985,1.125c1.71,0.751,3.135,1.741,4.275,2.97c1.139,1.23,1.994,2.625,2.565,4.185
		C37.074,21.501,37.359,23.09,37.359,24.71z M18.459,14v59.4h5.4c1.02-0.119,2.07-0.405,3.15-0.855
		c1.08-0.45,2.009-1.184,2.79-2.205c0.959-1.379,1.469-3.27,1.53-5.67V22.73c0-1.08-0.15-2.129-0.45-3.15
		c-0.42-1.26-1.005-2.264-1.755-3.015c-0.751-0.75-1.575-1.319-2.475-1.71c-0.9-0.39-1.815-0.63-2.745-0.72
		C22.973,14.045,22.149,14,21.429,14H18.459z"/>
	<path fill="#FFFFFF" d="M72.008,43.79c0,3.901,0,7.29,0,10.17s-0.076,5.386-0.225,7.515c-0.15,2.13-0.42,3.931-0.81,5.4
		c-0.391,1.471-0.976,2.776-1.755,3.915c-1.201,1.8-2.731,3.166-4.59,4.095c-1.86,0.931-3.75,1.395-5.67,1.395
		c-1.86,0-3.735-0.464-5.625-1.395c-1.89-0.93-3.436-2.295-4.635-4.095c-0.781-1.139-1.366-2.444-1.755-3.915
		c-0.391-1.469-0.661-3.27-0.81-5.4c-0.15-2.129-0.225-4.635-0.225-7.515s0-6.269,0-10.17c0-5.22,0.029-9.554,0.09-13.005
		c0.059-3.45,0.329-6.314,0.81-8.595c0.239-1.919,0.839-3.614,1.8-5.085c0.959-1.469,2.129-2.655,3.51-3.555
		c2.219-1.38,4.5-2.07,6.84-2.07c1.139,0,2.309,0.18,3.51,0.54c1.199,0.36,2.309,0.871,3.33,1.53c1.379,0.9,2.565,2.085,3.555,3.555
		c0.99,1.471,1.575,3.166,1.755,5.085c0.419,2.281,0.675,5.146,0.765,8.595C71.963,34.236,72.008,38.57,72.008,43.79z M65.798,63.86
		c0-2.52,0-5.549,0-9.09c0-3.54,0.029-7.2,0.09-10.98c-0.061-3.72-0.09-7.335-0.09-10.845c0-3.51,0-6.525,0-9.045
		c0-3.78-0.661-6.419-1.98-7.92c-1.321-1.499-2.94-2.25-4.86-2.25c-1.921,0-3.541,0.751-4.86,2.25c-1.32,1.5-1.98,4.14-1.98,7.92
		v19.89v20.07c0,3.78,0.585,6.466,1.755,8.055c1.17,1.59,2.894,2.385,5.175,2.385c2.279,0,3.974-0.795,5.085-2.385
		C65.243,70.326,65.798,67.64,65.798,63.86z"/>
	<path fill="#FFFFFF" d="M117.368,11.48h8.73v2.25c-0.6-0.12-1.17-0.12-1.71,0c-0.481,0.121-0.916,0.375-1.305,0.765
		c-0.391,0.391-0.675,1.005-0.855,1.845c0,0.061-0.151,0.961-0.45,2.7c-0.301,1.741-0.706,4.005-1.215,6.795
		c-0.511,2.79-1.096,5.971-1.755,9.54c-0.661,3.57-1.32,7.186-1.98,10.845c-1.561,8.7-3.33,18.54-5.31,29.52h-4.68
		c-0.481-3.18-1.021-6.539-1.62-10.08c-0.481-3.06-1.021-6.465-1.62-10.215c-0.6-3.75-1.201-7.605-1.8-11.565
		c-0.72,3.96-1.426,7.816-2.115,11.565c-0.69,3.75-1.305,7.155-1.845,10.215c-0.661,3.541-1.26,6.9-1.8,10.08h-4.68l-4.68-29.52
		c-0.601-3.659-1.17-7.275-1.71-10.845c-0.54-3.569-1.035-6.75-1.485-9.54c-0.45-2.79-0.81-5.054-1.08-6.795
		c-0.27-1.739-0.405-2.64-0.405-2.7c-0.18-0.839-0.466-1.454-0.855-1.845c-0.391-0.39-0.826-0.644-1.305-0.765
		c-0.54-0.12-1.08-0.12-1.62,0v-2.25h13.32v2.25c-0.54-0.12-1.021-0.12-1.44,0c-0.36,0.121-0.661,0.375-0.9,0.765
		c-0.24,0.391-0.27,1.005-0.09,1.845c0,0.061,0.104,0.855,0.315,2.385c0.209,1.53,0.509,3.555,0.9,6.075
		c0.39,2.52,0.824,5.386,1.305,8.595c0.479,3.21,0.99,6.496,1.53,9.855c0.54,3.361,1.064,6.691,1.575,9.99
		c0.509,3.3,1.004,6.271,1.485,8.91c0.66-3.479,1.395-7.439,2.205-11.88c0.81-4.439,1.575-8.82,2.295-13.14
		c-0.481-2.819-0.916-5.474-1.305-7.965c-0.391-2.489-0.736-4.68-1.035-6.57c-0.301-1.89-0.54-3.389-0.72-4.5
		c-0.18-1.11-0.27-1.695-0.27-1.755c-0.121-0.839-0.391-1.454-0.81-1.845c-0.42-0.39-0.841-0.644-1.26-0.765
		c-0.54-0.12-1.08-0.12-1.62,0v-2.25h13.23v2.25c-0.601-0.12-1.08-0.12-1.44,0c-0.36,0.121-0.646,0.375-0.855,0.765
		c-0.211,0.391-0.256,1.005-0.135,1.845c0,0.061,0.119,0.855,0.36,2.385c0.239,1.53,0.554,3.555,0.945,6.075
		c0.39,2.52,0.824,5.386,1.305,8.595c0.479,3.21,0.975,6.496,1.485,9.855c0.509,3.361,1.02,6.691,1.53,9.99
		c0.509,3.3,1.004,6.271,1.485,8.91c0.54-2.639,1.109-5.609,1.71-8.91c0.599-3.299,1.2-6.629,1.8-9.99
		c0.599-3.359,1.17-6.645,1.71-9.855c0.54-3.209,1.02-6.075,1.44-8.595c0.419-2.52,0.765-4.545,1.035-6.075s0.405-2.325,0.405-2.385
		c0.119-0.839,0.074-1.454-0.135-1.845c-0.211-0.39-0.465-0.644-0.765-0.765c-0.36-0.12-0.841-0.12-1.44,0V11.48z"/>
	<path fill="#FFFFFF" d="M155.348,11.57h7.92v2.25c-0.54-0.12-0.99-0.12-1.35,0c-0.301,0.121-0.585,0.375-0.855,0.765
		c-0.27,0.391-0.405,1.005-0.405,1.845v59.4h-7.56l-14.94-51.66v46.8c0,0.841,0.135,1.44,0.405,1.8s0.554,0.601,0.855,0.72
		c0.36,0.121,0.81,0.121,1.35,0v2.34h-7.92v-2.34c0.479,0.121,0.9,0.121,1.26,0c0.3-0.12,0.599-0.36,0.9-0.72
		c0.3-0.36,0.45-0.959,0.45-1.8V16.43c0-0.84-0.15-1.454-0.45-1.845c-0.301-0.39-0.6-0.644-0.9-0.765c-0.36-0.12-0.78-0.12-1.26,0
		v-2.25h9.18l15.93,54.72V16.43c0-0.84-0.15-1.454-0.45-1.845c-0.301-0.39-0.6-0.644-0.9-0.765c-0.36-0.12-0.78-0.12-1.26,0V11.57z"
		/>
	<path fill="#FFFFFF" d="M199.176,11.48v9.54h-2.34c-0.061-1.44-0.241-2.7-0.54-3.78c-0.301-0.9-0.796-1.755-1.485-2.565
		c-0.69-0.81-1.635-1.215-2.835-1.215h-3.69v57.51c0,0.841,0.12,1.456,0.36,1.845c0.239,0.391,0.509,0.616,0.81,0.675
		c0.3,0.18,0.66,0.18,1.08,0v2.34h-10.89v-2.34c0.479,0.18,0.869,0.18,1.17,0c0.299-0.059,0.585-0.284,0.855-0.675
		c0.27-0.389,0.405-1.004,0.405-1.845V13.46h-3.78c-1.26,0-2.221,0.405-2.88,1.215c-0.661,0.81-1.111,1.665-1.35,2.565
		c-0.36,1.08-0.571,2.34-0.63,3.78h-2.43v-9.54H199.176z"/>
	<path fill="#FFFFFF" d="M232.565,43.79c0,3.901,0,7.29,0,10.17s-0.076,5.386-0.225,7.515c-0.15,2.13-0.42,3.931-0.81,5.4
		c-0.391,1.471-0.976,2.776-1.755,3.915c-1.201,1.8-2.731,3.166-4.59,4.095c-1.86,0.931-3.75,1.395-5.67,1.395
		c-1.86,0-3.735-0.464-5.625-1.395c-1.89-0.93-3.436-2.295-4.635-4.095c-0.781-1.139-1.366-2.444-1.755-3.915
		c-0.391-1.469-0.661-3.27-0.81-5.4c-0.15-2.129-0.225-4.635-0.225-7.515s0-6.269,0-10.17c0-5.22,0.029-9.554,0.09-13.005
		c0.059-3.45,0.329-6.314,0.81-8.595c0.239-1.919,0.839-3.614,1.8-5.085c0.959-1.469,2.129-2.655,3.51-3.555
		c2.219-1.38,4.5-2.07,6.84-2.07c1.139,0,2.309,0.18,3.51,0.54c1.199,0.36,2.309,0.871,3.33,1.53c1.379,0.9,2.565,2.085,3.555,3.555
		c0.99,1.471,1.575,3.166,1.755,5.085c0.419,2.281,0.675,5.146,0.765,8.595C232.521,34.236,232.565,38.57,232.565,43.79z
		 M226.355,63.86c0-2.52,0-5.549,0-9.09c0-3.54,0.029-7.2,0.09-10.98c-0.061-3.72-0.09-7.335-0.09-10.845c0-3.51,0-6.525,0-9.045
		c0-3.78-0.661-6.419-1.98-7.92c-1.321-1.499-2.94-2.25-4.86-2.25c-1.921,0-3.541,0.751-4.86,2.25c-1.32,1.5-1.98,4.14-1.98,7.92
		v19.89v20.07c0,3.78,0.585,6.466,1.755,8.055c1.17,1.59,2.894,2.385,5.175,2.385c2.279,0,3.974-0.795,5.085-2.385
		C225.8,70.326,226.355,67.64,226.355,63.86z"/>
	<path fill="#FFFFFF" d="M277.925,11.48h8.73v2.25c-0.602-0.12-1.17-0.12-1.711,0c-0.48,0.121-0.914,0.375-1.305,0.765
		c-0.391,0.391-0.674,1.005-0.855,1.845c0,0.061-0.15,0.961-0.449,2.7c-0.301,1.741-0.705,4.005-1.215,6.795
		s-1.096,5.971-1.756,9.54c-0.66,3.57-1.32,7.186-1.979,10.845c-1.562,8.7-3.33,18.54-5.311,29.52h-4.68
		c-0.481-3.18-1.021-6.539-1.62-10.08c-0.48-3.06-1.021-6.465-1.62-10.215c-0.601-3.75-1.201-7.605-1.8-11.565
		c-0.72,3.96-1.426,7.816-2.115,11.565c-0.69,3.75-1.305,7.155-1.845,10.215c-0.661,3.541-1.26,6.9-1.8,10.08h-4.68l-4.68-29.52
		c-0.601-3.659-1.17-7.275-1.71-10.845c-0.54-3.569-1.035-6.75-1.485-9.54c-0.45-2.79-0.81-5.054-1.08-6.795
		c-0.27-1.739-0.405-2.64-0.405-2.7c-0.18-0.839-0.466-1.454-0.855-1.845c-0.391-0.39-0.826-0.644-1.305-0.765
		c-0.54-0.12-1.08-0.12-1.62,0v-2.25h13.32v2.25c-0.54-0.12-1.021-0.12-1.44,0c-0.36,0.121-0.661,0.375-0.9,0.765
		c-0.24,0.391-0.27,1.005-0.09,1.845c0,0.061,0.104,0.855,0.315,2.385c0.209,1.53,0.509,3.555,0.9,6.075
		c0.39,2.52,0.824,5.386,1.305,8.595c0.479,3.21,0.99,6.496,1.53,9.855c0.54,3.361,1.064,6.691,1.575,9.99
		c0.509,3.3,1.004,6.271,1.485,8.91c0.66-3.479,1.395-7.439,2.205-11.88c0.81-4.439,1.575-8.82,2.295-13.14
		c-0.481-2.819-0.916-5.474-1.305-7.965c-0.391-2.489-0.736-4.68-1.035-6.57c-0.301-1.89-0.54-3.389-0.72-4.5
		c-0.18-1.11-0.27-1.695-0.27-1.755c-0.121-0.839-0.391-1.454-0.81-1.845c-0.42-0.39-0.841-0.644-1.26-0.765
		c-0.54-0.12-1.08-0.12-1.62,0v-2.25h13.23v2.25c-0.601-0.12-1.08-0.12-1.439,0c-0.36,0.121-0.646,0.375-0.855,0.765
		c-0.211,0.391-0.256,1.005-0.135,1.845c0,0.061,0.119,0.855,0.359,2.385c0.239,1.53,0.555,3.555,0.945,6.075
		c0.39,2.52,0.824,5.386,1.305,8.595c0.479,3.21,0.975,6.496,1.485,9.855c0.509,3.361,1.02,6.691,1.53,9.99
		c0.509,3.3,1.004,6.271,1.484,8.91c0.54-2.639,1.11-5.609,1.71-8.91c0.599-3.299,1.201-6.629,1.8-9.99
		c0.6-3.359,1.17-6.645,1.711-9.855c0.539-3.209,1.02-6.075,1.439-8.595c0.418-2.52,0.766-4.545,1.035-6.075
		s0.404-2.325,0.404-2.385c0.119-0.839,0.074-1.454-0.135-1.845c-0.211-0.39-0.465-0.644-0.766-0.765c-0.359-0.12-0.84-0.12-1.439,0
		V11.48z"/>
	<path fill="#FFFFFF" d="M315.905,11.57h7.92v2.25c-0.541-0.12-0.99-0.12-1.35,0c-0.301,0.121-0.586,0.375-0.855,0.765
		c-0.27,0.391-0.404,1.005-0.404,1.845v59.4h-7.561l-14.939-51.66v46.8c0,0.841,0.135,1.44,0.404,1.8s0.555,0.601,0.855,0.72
		c0.359,0.121,0.809,0.121,1.35,0v2.34h-7.92v-2.34c0.479,0.121,0.9,0.121,1.26,0c0.299-0.12,0.6-0.36,0.9-0.72
		c0.299-0.36,0.449-0.959,0.449-1.8V16.43c0-0.84-0.15-1.454-0.449-1.845c-0.301-0.39-0.602-0.644-0.9-0.765
		c-0.359-0.12-0.781-0.12-1.26,0v-2.25h9.18l15.93,54.72V16.43c0-0.84-0.15-1.454-0.449-1.845c-0.301-0.39-0.602-0.644-0.9-0.765
		c-0.359-0.12-0.781-0.12-1.26,0V11.57z"/>
	<path fill="#FFFFFF" d="M365.313,13.73c-0.961,0.121-1.846,0.36-2.656,0.72c-0.809,0.36-1.529,0.931-2.16,1.71
		c-0.629,0.78-1.125,1.8-1.484,3.06c-0.359,1.26-0.539,2.821-0.539,4.68c0,2.52-0.016,5.535-0.047,9.045
		c-0.029,3.51-0.045,7.125-0.045,10.845c0,3.78,0.016,7.44,0.045,10.98c0.031,3.541,0.047,6.57,0.047,9.09
		c0,3.78,0.643,6.466,1.934,8.055c1.289,1.59,2.895,2.385,4.816,2.385c1.559,0,2.969-0.21,4.229-0.63
		c1.26-0.419,2.34-1.109,3.24-2.07c0.9-0.959,1.59-2.234,2.07-3.825c0.48-1.589,0.721-3.555,0.721-5.895v-2.43h2.068v4.59
		c0,3.901-1.064,6.93-3.193,9.09c-2.131,2.16-5.146,3.209-9.045,3.15c-1.861,0-3.736-0.464-5.625-1.395
		c-1.891-0.93-3.436-2.295-4.637-4.095c-0.779-1.139-1.365-2.444-1.754-3.915c-0.391-1.469-0.66-3.27-0.811-5.4
		c-0.15-2.129-0.225-4.635-0.225-7.515s0-6.269,0-10.17c0-5.22,0.029-9.554,0.09-13.005c0.059-3.45,0.299-6.314,0.721-8.595
		c0.238-1.919,0.854-3.614,1.844-5.085c0.99-1.469,2.174-2.655,3.557-3.555c2.219-1.38,4.5-2.07,6.84-2.07c0.299,0,0.584,0,0.854,0
		c0.271,0,0.555,0.031,0.855,0.09l-0.18-0.18c0.359,0.121,0.6,0.18,0.721,0.18c1.379,0.301,2.488,0.661,3.33,1.08
		c0.838,0.42,1.559,0.781,2.158,1.08c0.48,0.18,0.9,0.18,1.262,0c0.719-0.419,1.08-1.199,1.08-2.34c0.119,0,0.209,0.016,0.27,0.045
		c0.059,0.031,0.119,0.045,0.18,0.045h1.709v15.75h-1.979c-0.061-0.959-0.15-1.949-0.271-2.97c-0.119-0.84-0.285-1.769-0.494-2.79
		c-0.211-1.02-0.555-2.01-1.035-2.97c-0.121-0.239-0.375-0.66-0.766-1.26c-0.391-0.599-0.93-1.184-1.619-1.755
		c-0.691-0.569-1.545-1.049-2.564-1.44C367.802,13.656,366.632,13.55,365.313,13.73z"/>
	<path fill="#FFFFFF" d="M393.481,70.97c0,0.841,0.135,1.456,0.406,1.845c0.27,0.391,0.523,0.616,0.764,0.675
		c0.301,0.18,0.689,0.18,1.17,0v2.34h-10.889v-2.34c0.479,0.18,0.9,0.18,1.26,0c0.18-0.059,0.404-0.284,0.674-0.675
		c0.271-0.389,0.406-1.004,0.406-1.845V16.34c0-0.9-0.135-1.544-0.406-1.935c-0.27-0.39-0.494-0.644-0.674-0.765
		c-0.359-0.12-0.781-0.12-1.26,0v-2.16h10.889v2.16c-0.48-0.12-0.869-0.12-1.17,0c-0.24,0.121-0.494,0.375-0.764,0.765
		c-0.271,0.391-0.406,1.035-0.406,1.935V70.97z"/>
	<path fill="#FFFFFF" d="M425.61,11.57h7.92v2.25c-0.539-0.12-0.988-0.12-1.35,0c-0.301,0.121-0.584,0.375-0.855,0.765
		c-0.27,0.391-0.404,1.005-0.404,1.845v59.4h-7.561l-14.939-51.66v46.8c0,0.841,0.135,1.44,0.404,1.8
		c0.271,0.36,0.555,0.601,0.855,0.72c0.361,0.121,0.811,0.121,1.35,0v2.34h-7.92v-2.34c0.48,0.121,0.9,0.121,1.262,0
		c0.299-0.12,0.598-0.36,0.898-0.72s0.451-0.959,0.451-1.8V16.43c0-0.84-0.15-1.454-0.451-1.845c-0.301-0.39-0.6-0.644-0.898-0.765
		c-0.361-0.12-0.781-0.12-1.262,0v-2.25h9.182l15.93,54.72V16.43c0-0.84-0.15-1.454-0.451-1.845c-0.301-0.39-0.6-0.644-0.898-0.765
		c-0.361-0.12-0.781-0.12-1.262,0V11.57z"/>
	<path fill="#FFFFFF" d="M467.46,66.38v9.45h-25.109v-2.34c0.479,0.18,0.84,0.18,1.08,0c0.299-0.059,0.584-0.284,0.855-0.675
		c0.27-0.389,0.404-1.004,0.404-1.845V16.34c0-0.9-0.135-1.544-0.404-1.935c-0.271-0.39-0.557-0.644-0.855-0.765
		c-0.24-0.12-0.602-0.12-1.08,0v-2.16h25.109v9.45h-2.34c-0.061-1.379-0.24-2.61-0.539-3.69c-0.301-0.9-0.797-1.755-1.486-2.565
		c-0.689-0.81-1.635-1.215-2.834-1.215h-9.359v29.16h6.299c0.779,0,1.379-0.209,1.801-0.63c0.418-0.419,0.719-0.9,0.9-1.44
		c0.238-0.66,0.359-1.409,0.359-2.25h2.07v11.07h-2.07c0-0.839-0.121-1.56-0.359-2.16c-0.182-0.599-0.482-1.125-0.9-1.575
		c-0.422-0.45-1.021-0.675-1.801-0.675h-6.299v28.71h9.359c1.199,0,2.145-0.36,2.834-1.08c0.689-0.72,1.186-1.559,1.486-2.52
		c0.299-1.08,0.479-2.309,0.539-3.69H467.46z"/>
	<path fill="#FFFFFF" d="M510.929,13.64c-0.48-0.12-0.9-0.12-1.26,0c-0.24,0.121-0.48,0.375-0.721,0.765
		c-0.24,0.391-0.359,1.035-0.359,1.935v54.63c0,0.841,0.119,1.456,0.359,1.845c0.24,0.391,0.48,0.616,0.721,0.675
		c0.359,0.18,0.779,0.18,1.26,0v2.34h-10.891v-2.34c0.48,0.18,0.84,0.18,1.08,0c0.301-0.059,0.6-0.284,0.9-0.675
		c0.301-0.389,0.451-1.004,0.451-1.845V21.56c-1.562,6.241-2.971,11.851-4.23,16.83c-0.541,2.101-1.051,4.171-1.531,6.21
		c-0.48,2.041-0.93,3.87-1.35,5.49c-0.42,1.62-0.75,2.941-0.99,3.96c-0.24,1.021-0.359,1.561-0.359,1.62h-3.779
		c-0.361-1.379-0.781-2.955-1.26-4.725c-0.482-1.77-0.961-3.6-1.441-5.49s-0.959-3.765-1.439-5.625
		c-0.48-1.859-0.932-3.69-1.35-5.49c-1.08-4.199-2.16-8.46-3.24-12.78v49.32c0,0.841,0.104,1.456,0.314,1.845
		c0.211,0.391,0.465,0.616,0.766,0.675c0.359,0.18,0.75,0.18,1.17,0v2.43h-7.65V73.4c0.48,0.18,0.84,0.18,1.08,0
		c0.299-0.059,0.586-0.284,0.855-0.675c0.27-0.39,0.404-1.004,0.404-1.845V16.34c0-0.9-0.135-1.544-0.404-1.935
		c-0.27-0.39-0.557-0.644-0.855-0.765c-0.24-0.12-0.6-0.12-1.08,0v-2.16h8.82l9,34.11l8.551-34.11h8.459V13.64z"/>
	<path fill="#FFFFFF" d="M546.569,71.06c0.119,0.841,0.373,1.44,0.764,1.8c0.391,0.36,0.824,0.601,1.307,0.72
		c0.479,0.121,1.02,0.121,1.619,0v2.25h-13.23v-2.25c0.541,0.121,1.02,0.121,1.441,0c0.299-0.12,0.568-0.36,0.809-0.72
		c0.24-0.36,0.301-0.959,0.18-1.8c0-0.12-0.164-1.184-0.494-3.195c-0.33-2.01-0.736-4.665-1.215-7.965h-11.52
		c-0.602,3.301-1.066,5.956-1.396,7.965c-0.33,2.011-0.494,3.075-0.494,3.195c-0.18,0.841-0.166,1.44,0.045,1.8
		c0.209,0.36,0.465,0.601,0.766,0.72c0.359,0.121,0.84,0.121,1.439,0v2.25h-8.641v-2.25c0.541,0.121,1.08,0.121,1.621,0
		c0.479-0.12,0.914-0.36,1.305-0.72c0.389-0.36,0.676-0.959,0.855-1.8c0-0.059,0.148-0.945,0.449-2.655
		c0.299-1.71,0.705-3.96,1.215-6.75s1.094-5.954,1.756-9.495c0.658-3.54,1.318-7.169,1.98-10.89l5.398-29.52h4.59
		c1.74,10.98,3.301,20.79,4.682,29.43c0.598,3.721,1.17,7.351,1.709,10.89c0.541,3.541,1.035,6.705,1.484,9.495
		c0.451,2.79,0.824,5.056,1.125,6.795C546.419,70.101,546.569,71.001,546.569,71.06z M526.589,57.56h10.891
		c-0.361-2.459-0.766-5.099-1.215-7.92c-0.451-2.82-0.9-5.655-1.352-8.505c-0.449-2.849-0.898-5.625-1.35-8.325
		c-0.449-2.7-0.855-5.189-1.215-7.47c-0.48,2.281-0.961,4.77-1.439,7.47c-0.48,2.7-0.977,5.476-1.484,8.325
		c-0.512,2.85-1.006,5.685-1.486,8.505C527.458,52.461,527.009,55.101,526.589,57.56z"/>
	<path fill="#FFFFFF" d="M576.179,27.59c-0.061-0.779-0.061-1.575,0-2.385c0.059-0.81,0.209-1.634,0.449-2.475
		c0.24-0.959,0.615-2.145,1.125-3.555c0.51-1.409,1.215-2.714,2.115-3.915c0.9-1.2,2.039-2.235,3.42-3.105
		c1.379-0.869,3.061-1.305,5.041-1.305c1.918,0,3.629,0.391,5.129,1.17c1.5,0.781,2.746,1.741,3.736,2.88
		c0.988,1.141,1.723,2.371,2.203,3.69c0.48,1.321,0.689,2.61,0.631,3.87c-0.121,3.661-0.945,7.02-2.475,10.08
		c-1.531,3.06-3.406,5.94-5.625,8.64c4.141,4.68,6.885,8.97,8.234,12.87c1.35,3.901,1.605,7.65,0.766,11.25
		c-0.359,1.26-0.797,2.49-1.305,3.69c-0.512,1.201-1.156,2.295-1.936,3.285c-0.781,0.99-1.725,1.845-2.836,2.565
		c-1.109,0.72-2.445,1.2-4.004,1.44c-0.301,0.119-0.57,0.18-0.811,0.18s-0.51,0-0.811,0h-0.27h-0.27
		c-0.359,0.059-0.811,0.03-1.35-0.09c-1.26-0.121-2.385-0.375-3.375-0.765s-1.877-0.914-2.656-1.575
		c-1.859-1.499-3.18-3.45-3.959-5.85c-0.18-0.84-0.301-1.679-0.359-2.52c-0.182-1.74-0.197-3.434-0.045-5.085
		c0.148-1.649,0.508-3.33,1.078-5.04s1.426-3.465,2.566-5.265c1.139-1.8,2.578-3.749,4.32-5.85c-2.881-3.24-5.027-6.165-6.436-8.775
		C577.063,33.035,576.298,30.351,576.179,27.59z M594.897,71.15c1.74-1.98,2.566-4.034,2.477-6.165
		c-0.09-2.129-0.631-4.214-1.621-6.255c-0.99-2.039-2.25-3.944-3.779-5.715c-1.529-1.769-2.926-3.344-4.186-4.725l-0.449-0.54
		c-1.201,1.44-2.4,3.136-3.6,5.085c-1.201,1.951-2.115,3.991-2.746,6.12c-0.629,2.13-0.855,4.261-0.674,6.39
		c0.18,2.13,1.049,4.126,2.609,5.985c0.719,0.72,1.633,1.336,2.744,1.845c1.109,0.51,2.205,0.765,3.285,0.765h0.09
		c1.08-0.059,2.174-0.344,3.285-0.855C593.442,72.576,594.298,71.931,594.897,71.15z M582.839,15.89
		c-1.561,1.8-2.34,3.766-2.34,5.895c0,2.13,0.449,4.23,1.35,6.3c0.9,2.07,2.07,4.065,3.51,5.985c1.439,1.921,2.82,3.6,4.141,5.04
		c1.199-1.559,2.369-3.359,3.51-5.4c1.139-2.039,2.01-4.109,2.609-6.21c0.6-2.1,0.795-4.169,0.586-6.21
		c-0.211-2.039-1.066-3.899-2.566-5.58c-0.6-0.599-1.35-1.139-2.25-1.62c-0.898-0.479-1.949-0.72-3.148-0.72
		c-1.262,0-2.326,0.256-3.195,0.765C584.173,14.646,583.437,15.23,582.839,15.89z"/>
</g>
</svg>
